<?xml version="1.0" standalone="no"?>
<!DOCTYPE svg PUBLIC "-//W3C//DTD SVG 20010904//EN"
 "http://www.w3.org/TR/2001/REC-SVG-20010904/DTD/svg10.dtd">
<svg version="1.0" xmlns="http://www.w3.org/2000/svg"
 width="260.000000pt" height="260.000000pt" viewBox="0 0 260.000000 260.000000"
 preserveAspectRatio="xMidYMid meet">
<metadata>
Created by potrace 1.11, written by Peter Selinger 2001-2013
</metadata>
<g transform="translate(0.000000,260.000000) scale(0.100000,-0.100000)"
fill="#000000" stroke="none">
<path d="M257 2568 c246 -321 253 -332 253 -385 0 -49 -3 -54 -58 -110 -347
-355 -447 -874 -254 -1321 50 -116 113 -217 195 -312 l64 -74 -103 -173 -103
-173 904 0 903 0 195 253 194 252 -78 3 c-44 2 -79 5 -79 8 0 3 18 36 40 74
58 97 107 219 138 340 23 93 26 124 26 275 0 186 -12 257 -73 425 -167 458
-620 770 -1115 770 l-126 0 0 80 0 80 -466 0 c-372 0 -465 -3 -457 -12z m836
-971 c-3 -490 -3 -949 2 -1019 l7 -128 594 0 594 0 -133 -169 -132 -170 -812
0 -812 -1 81 137 c44 76 88 154 99 174 18 35 18 77 19 936 l0 899 -89 115
c-49 63 -85 116 -81 119 4 3 157 4 338 2 l330 -3 -5 -892z m372 718 c241 -39
448 -145 618 -316 152 -153 259 -350 303 -559 26 -122 25 -334 -4 -457 -33
-145 -95 -287 -175 -401 l-30 -42 -74 0 -73 0 56 72 c68 88 146 245 174 353
28 102 38 305 20 412 -51 320 -262 601 -553 738 -133 63 -235 86 -399 92
l-148 6 0 53 c0 32 5 54 13 57 26 11 186 6 272 -8z m-9 -216 c526 -93 858
-629 703 -1135 -42 -136 -156 -319 -248 -397 l-33 -27 -349 0 -349 0 0 778 c0
428 3 782 7 785 10 11 203 8 269 -4z m-990 -344 c-52 -79 -98 -183 -129 -293
-18 -65 -21 -104 -21 -247 0 -156 3 -177 28 -260 33 -109 73 -199 127 -281 39
-61 40 -63 37 -145 l-3 -84 -55 67 c-143 173 -224 368 -251 607 -13 116 -2
249 32 385 29 117 124 304 206 406 l68 85 3 -85 3 -86 -45 -69z m43 -532 l-1
-388 -23 52 c-40 88 -56 163 -62 294 -4 95 -2 145 11 208 15 75 63 221 72 221
2 0 4 -174 3 -387z"/>
<path d="M1773 1927 c13 -11 14 -16 6 -19 -25 -8 12 -67 80 -128 63 -58 93
-71 106 -50 4 6 12 7 18 3 7 -4 6 0 -2 10 -15 19 -26 23 -15 5 4 -7 3 -8 -5
-4 -6 4 -8 12 -5 18 8 13 -120 135 -167 161 -19 11 -26 12 -16 4z"/>
</g>
</svg>
